<?xml version="1.0" encoding="UTF-8"?>
<svg id="Layer_1" xmlns="http://www.w3.org/2000/svg" version="1.1" xmlns:xlink="http://www.w3.org/1999/xlink" viewBox="0 0 283.5 561.3">
  <!-- Generator: Adobe Illustrator 30.2.1, SVG Export Plug-In . SVG Version: 2.1.1 Build 1)  -->
  <defs>
    <style>
      .st0 {
        fill: #231f20;
      }

      .st1 {
        fill: #fff;
      }

      .st2 {
        fill: none;
      }

      .st3 {
        clip-path: url(#clippath-1);
      }

      .st4 {
        fill: #ee3124;
      }
    </style>
    <clipPath id="clippath-1">
      <rect class="st2" x="200.1" y="389" width="72.8" height="18.3"/>
    </clipPath>
  </defs>
  <rect class="st1" width="283.5" height="560.5"/>
  <rect class="st4" y="0" width="283.5" height="416.7"/>
  <g>
    <path class="st0" d="M47.1,480.2c-1.5,1.1-3.5,1.8-6,1.8-9.7,0-11.3-9.4-11.3-18.2s1.6-18.2,11.3-18.2,11.3,9.4,11.3,18.2-.5,10.3-2.8,13.8l3.5,3.2-2.4,2.5-3.5-3.2ZM40.9,474.6l2.4-2.6,3.2,2.9c1.1-2.6,1.3-6.6,1.3-11.1,0-8.1-.8-14.7-6.8-14.7s-6.8,6.6-6.8,14.7.8,14.6,6.8,14.6,2.4-.3,3.2-.8l-3.4-3Z"/>
    <path class="st0" d="M74.7,481.3h-3.9v-3.1h0c-1.1,2.4-3.8,3.8-6.4,3.8-6.9,0-6.9-5.2-6.9-8.3v-18.6h4.1v18.1c0,2,.1,5.3,3.9,5.3s5.2-1.5,5.2-5.3v-18.1h4.1v26.3Z"/>
    <path class="st0" d="M79.5,462.9c0-6,2.5-8.6,8.8-8.6s8,4.8,8,7.5v14.6c0,1.1,0,2.1,1.3,2.1s.8,0,1-.2v2.9c-.3,0-1.4.2-2.4.2-1.6,0-3.5,0-3.7-3.4h0c-1.3,2.4-3.9,3.8-6.3,3.8-4.9,0-7.2-2.9-7.2-7.6s1.6-6.2,4.9-7.3l5.5-1.7c3-.9,3-1.8,3-4s-1.5-3.9-4.2-3.9c-4.5,0-4.5,4.2-4.5,5.1v.2h-4.1ZM92.2,467c-1.5,1.6-5.1,2-7,3.1-1.3.8-2,1.9-2,4.2s.9,4.5,3.7,4.5,5.3-2.3,5.3-5v-6.8Z"/>
    <path class="st0" d="M102.1,446.3h4.1v35h-4.1v-35Z"/>
    <path class="st0" d="M112.1,446.3h4.1v4.7h-4.1v-4.7ZM112.1,455h4.1v26.3h-4.1v-26.3Z"/>
    <path class="st0" d="M123.1,447.4h4.1v7.6h4.6v3.2h-4.6v16.9c0,2.1.5,2.9,2.7,2.9s1.4,0,1.8-.1v3.4c-.5,0-1.6.3-3.3.3-4.3,0-5.3-1.8-5.3-5.2v-18.1h-3.8v-3.2h3.8v-7.6Z"/>
    <path class="st0" d="M132.3,455h4.5l5.2,21.1h0l4.6-21.1h4.5l-7.6,28c-1,3.6-2.1,6.9-7,6.9s-2.3,0-3-.1v-3.2c.6,0,1.4.1,2.4.1,1.9,0,2.7-1.1,3.2-2.5l.8-2.3-7.7-26.8Z"/>
    <path class="st0" d="M30.3,495.3h4.3v35h-4.3v-35Z"/>
    <path class="st0" d="M55.2,504.4c0-3.7-1.3-6.2-5.4-6.2s-5.8,2-5.8,5.7c0,9.8,16.5,4,16.5,16.8s-5.9,10.4-10.9,10.4c-8.2,0-10.6-4.2-10.6-11.7h4.3c0,3.9.2,8.1,6.6,8.1s6.1-2.5,6.1-6.2c0-9.9-16.5-4.2-16.5-17s1.4-9.7,10.2-9.7,9.7,3.3,9.8,9.8h-4.3Z"/>
    <path class="st0" d="M86.9,512.8c0,8.8-1.6,18.2-11.3,18.2s-11.3-9.4-11.3-18.2,1.6-18.2,11.3-18.2,11.3,9.4,11.3,18.2ZM68.8,512.8c0,8.1.8,14.6,6.8,14.6s6.8-6.6,6.8-14.6-.8-14.7-6.8-14.7-6.8,6.6-6.8,14.7Z"/>
    <path class="st0" d="M107.8,522.6c0,2.8,1.6,5.1,4.6,5.1,5.8,0,6.1-8.7,6.1-10.4v-2.7h0c-.7,1.3-2.8,3.9-6.6,3.9-6,0-9.1-4.5-9.1-11s3.3-11.9,9.8-11.9c9.6,0,10.3,9.3,10.3,16.5s-.5,18.9-10.5,18.9-8.8-6.7-8.8-8.3h4.3ZM112.5,498.8c-4.3,0-5.5,4.4-5.5,8s.9,8,5.5,8,5.5-4.4,5.5-8-1.2-8-5.5-8Z"/>
    <path class="st0" d="M126.4,513.4c0-7.6.5-17.8,9.9-17.8s9.9,9.3,9.9,17.8-.5,17.5-9.9,17.5-9.9-9.3-9.9-17.5ZM136.3,527.7c5.3,0,5.6-7,5.6-14.3s-.3-14.6-5.6-14.6-5.6,7-5.6,14.6.3,14.3,5.6,14.3Z"/>
    <path class="st0" d="M149.9,513.4c0-7.6.5-17.8,9.9-17.8s9.9,9.3,9.9,17.8-.5,17.5-9.9,17.5-9.9-9.3-9.9-17.5ZM159.8,527.7c5.3,0,5.6-7,5.6-14.3s-.3-14.6-5.6-14.6-5.6,7-5.6,14.6.3,14.3,5.6,14.3Z"/>
    <path class="st0" d="M172.9,501.3c4.4-.2,8.4-.8,8.6-5.7h2.9v34.7h-4.1v-26.1h-7.4v-2.9Z"/>
  </g>
  <g>
    <g>
      <polygon class="st1" points="233.1 59.1 221.9 59.1 221.9 70.4 233.1 70.4 233.1 59.1 233.1 59.1"/>
      <path class="st1" d="M207.2,56c-.3.6-.7,1.2-1.2,1.8-.5.6-1,1.1-1.6,1.6-.6.5-1.4.9-2.3,1.2-.9.3-1.9.5-3.1.5s-2.6-.2-3.7-.7c-1.1-.5-2-1.1-2.8-2-.8-.9-1.4-1.9-1.8-3.1-.4-1.2-.6-2.5-.6-3.8s.2-2.6.6-3.8c.4-1.2,1-2.2,1.8-3.1.8-.9,1.7-1.5,2.8-2,1.1-.5,2.3-.7,3.7-.6,1.2,0,2.2.2,3.1.5.9.3,1.6.7,2.3,1.2.6.5,1.2,1.1,1.6,1.7.5.6.8,1.3,1.2,1.9h11.4c-.5-2.3-1.3-4.4-2.6-6.4-1.2-1.9-2.7-3.6-4.4-5-1.7-1.4-3.7-2.5-6-3.3-2.2-.8-4.6-1.2-7.1-1.2s-5.4.5-7.8,1.6c-2.4,1-4.5,2.5-6.3,4.3-1.8,1.8-3.2,3.9-4.2,6.4-1,2.4-1.5,5.1-1.5,7.8s.5,5.4,1.6,7.9c1,2.4,2.4,4.6,4.2,6.4,1.8,1.8,3.9,3.3,6.4,4.3,2.5,1,5.1,1.6,8,1.6s4.9-.4,7.1-1.2c2.2-.8,4.2-1.9,5.9-3.3,1.7-1.4,3.1-3.1,4.3-5,1.2-1.9,2-3.9,2.5-6.1h-11.5Z"/>
      <path class="st1" d="M156.4,70.4h11.3v-20.8c0-1.4.2-2.6.6-3.5.4-.9,1-1.6,1.8-2.1.8-.5,1.7-.8,2.8-1,1.1-.2,2.3-.3,3.6-.3v-11.4c-1.6,0-3,.2-4.1.6-1.1.4-2,.8-2.7,1.4-.7.5-1.3,1.1-1.7,1.7-.4.6-.7,1.1-1,1.6h-.1v-4h-10.6v37.8h0Z"/>
      <path class="st1" d="M139.3,32.6v4h-.1c-.4-.6-.8-1.2-1.4-1.8-.6-.6-1.3-1.2-2.2-1.7-.9-.5-2-1-3.2-1.3-1.2-.3-2.6-.5-4.2-.5-2.5,0-5,.5-7.2,1.4-2.3.9-4.3,2.3-6,4-1.7,1.7-3.1,3.9-4.2,6.4-1,2.5-1.6,5.3-1.6,8.4s.4,5.3,1.3,7.7c.9,2.4,2.1,4.6,3.7,6.4,1.6,1.9,3.6,3.3,6,4.4,2.4,1.1,5,1.6,8,1.6s2.2-.1,3.3-.3c1.1-.2,2.2-.5,3.2-1,1-.5,1.9-1,2.7-1.7.8-.7,1.4-1.5,1.9-2.4h.1v4.1s11.3,0,11.3,0v-37.8h-11.3ZM138.8,54.5c-.3,1.1-.9,2.2-1.6,3.2-.7,1-1.7,1.8-2.9,2.4-1.2.7-2.7,1-4.5,1s-3.2-.3-4.4-1c-1.2-.7-2.1-1.5-2.9-2.4-.7-1-1.3-2-1.6-3.1-.3-1.1-.5-2.1-.5-3s.2-2.2.5-3.3c.4-1.1.9-2.2,1.7-3.1.8-1,1.7-1.7,2.9-2.3,1.2-.6,2.6-.9,4.2-.9s3,.3,4.2.8c1.2.6,2.2,1.3,3,2.2.8.9,1.4,2,1.8,3.1.4,1.1.6,2.3.6,3.4s-.2,1.9-.5,3.1h0Z"/>
      <polygon class="st1" points="93.5 70.4 104.7 70.4 104.7 20 93.5 20 93.5 70.4 93.5 70.4"/>
      <polygon class="st1" points="30.3 20 30.3 70.4 41.6 70.4 41.6 31.3 56.3 31.3 56.3 20 30.3 20 30.3 20"/>
      <path class="st1" d="M87.6,43.9c-1-2.5-2.4-4.7-4.2-6.6-1.8-1.9-3.9-3.3-6.3-4.4-2.4-1.1-5.1-1.6-8-1.6s-5.5.6-7.9,1.7c-2.4,1.1-4.5,2.6-6.3,4.5-1.8,1.9-3.1,4-4.1,6.5-1,2.4-1.5,5-1.5,7.6s.5,5.4,1.6,7.9c1.1,2.4,2.5,4.5,4.4,6.4,1.8,1.8,4,3.2,6.4,4.3,2.4,1,5,1.5,7.7,1.5,4,0,7.6-1.1,10.8-3.4,1.6-1.1,3-2.4,4.4-4,1.3-1.6,2.4-3.5,3.3-5.6h-11.6c-.8,1-1.7,1.8-2.7,2.5-1,.7-2.4,1-4.1,1s-4.2-.6-5.8-1.9c-1.7-1.2-2.7-3-3-5.3h28.3c0-.5.2-.9.2-1.3,0-.4,0-1,0-1.7,0-2.9-.5-5.5-1.5-8.1h0ZM60.6,47.3c.1-.5.4-1.2.7-1.9.3-.7.9-1.5,1.5-2.1.7-.7,1.5-1.2,2.6-1.7,1-.5,2.3-.7,3.7-.7s2.7.2,3.7.7c1,.5,1.9,1,2.6,1.7.7.7,1.2,1.4,1.5,2.1.3.7.6,1.4.7,1.9h-17.1Z"/>
      <polygon class="st1" points="15.4 31.3 26.7 31.3 26.7 20 15.4 20 15.4 31.3 15.4 31.3"/>
    </g>
    <g>
      <path class="st1" d="M30.1,80.6h11.4c5.5,0,9,3.2,9,8.8s-1.3,7.9-5.4,8.9h0c3.1.4,4.8,3,5,6l.3,6c.2,3.9.8,4.9,1.9,5.5h-5.2c-.7-.7-1.1-3.3-1.2-5.1l-.3-5.5c-.3-4.8-3-5.1-5.2-5.1h-5.9v15.7h-4.3v-35.1ZM34.4,96.6h4.3c2.6,0,7.2,0,7.2-6.8s-2.3-5.6-6.3-5.6h-5.2v12.4Z"/>
      <path class="st1" d="M59,103.1c0,4,0,10.1,5.1,10.1s4.5-4.1,4.5-6.1h4.1c0,2.8-1.7,9.4-8.9,9.4s-9.2-4.5-9.2-13.5,1.3-14.2,9.4-14.2,8.8,7,8.8,12.7v1.7h-13.9ZM68.5,99.8v-1.4c0-3-.9-6.4-4.6-6.4s-4.8,5.3-4.8,6.9v1h9.4Z"/>
      <path class="st1" d="M94.7,114.1c0,7.9-3.6,10.7-9,10.7s-8,0-8.7-6.6h4.1c.2,2.4,2.1,3.3,4.2,3.3,5.3,0,5.1-4.1,5.1-5.9v-3.4h0c-.9,2.2-3.3,3.5-6,3.5-7.7,0-8.2-9.7-8.2-13.2,0-7.1,1.9-13.9,8.6-13.9s5.2,2,5.7,4h0v-3.3h3.9v24.7ZM80.7,102.6c0,4.3.6,9.6,4.8,9.6s5.4-4.2,5.4-9.6-.9-10.3-5.3-10.3-4.8,4-4.8,10.3Z"/>
      <path class="st1" d="M100.4,80.6h4.1v4.7h-4.1v-4.7ZM100.4,89.4h4.1v26.4h-4.1v-26.4Z"/>
      <path class="st1" d="M121.5,97.1c0-3.3-.9-5.2-3.9-5.2s-4.3.3-4.3,4,3.2,3.7,6.5,4.8c3.2,1.1,6.4,2.2,6.4,7.4s-3.6,8.3-8.5,8.3c-9,0-9.1-6.6-9.1-9.4h4.1c0,3.2.9,6.1,4.9,6.1s4.4-.6,4.4-4.4-3.2-4.3-6.4-5.4c-3.2-1.1-6.5-2-6.5-7.5s3.8-7.3,8.4-7.3c7.7,0,8,5.3,8,8.4h-4.1Z"/>
      <path class="st1" d="M131.5,81.7h4.1v7.7h4.6v3.2h-4.6v16.9c0,2.1.5,3,2.7,3s1.4,0,1.8-.1v3.4c-.5,0-1.6.3-3.3.3-4.3,0-5.3-1.8-5.3-5.2v-18.2h-3.8v-3.2h3.8v-7.7Z"/>
      <path class="st1" d="M146.4,103.1c0,4,0,10.1,5.1,10.1s4.5-4.1,4.5-6.1h4.1c0,2.8-1.7,9.4-8.9,9.4s-9.2-4.5-9.2-13.5,1.3-14.2,9.4-14.2,8.8,7,8.8,12.7v1.7h-13.9ZM156,99.8v-1.4c0-3-.9-6.4-4.6-6.4s-4.8,5.3-4.8,6.9v1h9.4Z"/>
      <path class="st1" d="M164.8,89.4h4.1v3.9h0c1.2-2.5,2.8-4.6,5.7-4.6s1.4,0,1.8.3v4c-.4,0-.9-.2-2.2-.2-2.1,0-5.4,1.9-5.4,6.3v16.7h-4.1v-26.4Z"/>
      <path class="st1" d="M182.8,103.1c0,4,0,10.1,5.1,10.1s4.5-4.1,4.5-6.1h4.1c0,2.8-1.7,9.4-8.9,9.4s-9.2-4.5-9.2-13.5,1.3-14.2,9.4-14.2,8.8,7,8.8,12.7v1.7h-13.9ZM192.4,99.8v-1.4c0-3-.9-6.4-4.6-6.4s-4.8,5.3-4.8,6.9v1h9.4Z"/>
      <path class="st1" d="M218.6,115.8h-3.9v-3.2h0c-.5,2-2.9,3.9-5.7,3.9-6.3,0-8.6-5.6-8.6-13.9s.9-13.9,8.3-13.9,4.9,1.4,5.8,3.7h0v-11.8h4.1v35.1ZM209.4,112.9c4.6,0,5.3-4.3,5.3-10.3s-.9-10.3-5.3-10.3-4.8,4-4.8,10.3,1,10.3,4.8,10.3Z"/>
    </g>
  </g>
  <path class="st1" d="M46.2,264.8L.1,310.9l106.1,106.1,177.2-177.2v-92.1l-177.2,177.2-60.1-60.1h0Z"/>
  <g class="st3">
    <path class="st1" d="M272.9,389h-5.5l-3.2,14.2h0l-3.3-14.2h-5.5v18h3.5v-15.1h0l3.3,15.1h3.7l3.4-15.1h0v15.1h3.5v-18ZM247.9,392.2h5.5v-3.2h-14.7v3.2h5.5v14.8h3.8v-14.8ZM231.8,394.5h-2.6v2.7h-1.3v1.9h1.3v6c0,1.3.4,2.1,2.7,2.1h.3c.4,0,.8,0,1.2,0v-2c-.2,0-.4,0-.5,0-1.1,0-1.1-.2-1.1-.8v-5.4h1.6v-1.9h-1.6v-2.7ZM221.3,407.1h2.6v-5.1c0-1.1.4-2.4,2.4-2.4s.5,0,.7,0v-2.6c-.2,0-.3,0-.5,0-1.6,0-2.2,1-2.7,2h0v-1.7h-2.5v9.9ZM212.9,401.1c.1-1.3.8-2.1,2-2.1s1.9.5,2,2.1h-4ZM216.8,404.2c-.2.7-.9,1.1-1.7,1.1-2.1,0-2.2-1.7-2.3-2.4h6.8v-.5c0-4.5-2.7-5.4-4.6-5.4-4.3,0-4.7,3.8-4.7,5,0,4.1,2.1,5.4,4.9,5.4s3.7-.8,4.3-3.2h-2.7ZM206.5,403.5c0,.5-.4,1.7-1.8,1.7-2,0-2-2.1-2-3.2s.4-2.9,2.1-2.9h.1c1.1,0,1.5,1,1.6,1.6h2.6c-.2-3.1-2.8-3.8-4.4-3.8-3.3,0-4.7,2.3-4.7,5.5s.9,4.9,4.6,4.9,4.4-2.8,4.5-3.9h-2.6Z"/>
  </g>
</svg>