<?xml version="1.0" encoding="UTF-8"?>
<svg id="Layer_1" xmlns="http://www.w3.org/2000/svg" version="1.1" viewBox="0 0 24 24">
  <!-- Generator: Adobe Illustrator 30.2.1, SVG Export Plug-In . SVG Version: 2.1.1 Build 1)  -->
  <defs>
    <style>
      .st0 {
        fill: #cb2e2e;
        fill-rule: evenodd;
      }
    </style>
  </defs>
  <path class="st0" d="M13.4,24H0V2h3c1.2,0,2.2-1.1,3-2h8c.8.9,1.8,2,3,2h3v9.1c-.5,0-1-.1-1.5-.1h-.5s0-7,0-7h-4l-2,2h-3.9l-2.1-2H2v18h9.9c.4.8.9,1.4,1.5,2ZM18.5,13c3,0,5.5,2.5,5.5,5.5s-2.5,5.5-5.5,5.5-5.5-2.5-5.5-5.5,2.5-5.5,5.5-5.5ZM18.5,15c1.9,0,3.5,1.6,3.5,3.5s-1.6,3.5-3.5,3.5-3.5-1.6-3.5-3.5,1.6-3.5,3.5-3.5ZM21,19h-3v-3h1v2h2v1ZM5.8,14.9l-1-1-.8.8,1.9,1.8,3.1-3.2-.8-.8s-2.3,2.4-2.3,2.4ZM12,16h-2v-1h2v1ZM14,14h-4v-1h4v1ZM5.8,10l-1-1-.8.8,1.9,1.8,3.1-3.2-.8-.8s-2.3,2.4-2.3,2.4ZM14,11h-4v-1h4v1ZM14,9h-4v-1h4v1ZM9,3c0,.6.4,1,1,1s1-.4,1-1-.4-1-1-1-1,.4-1,1Z"/>
</svg>