<?xml version="1.0" encoding="UTF-8"?>
<svg id="Layer_1" xmlns="http://www.w3.org/2000/svg" version="1.1" viewBox="0 0 24 24">
  <!-- Generator: Adobe Illustrator 30.2.1, SVG Export Plug-In . SVG Version: 2.1.1 Build 1)  -->
  <defs>
    <style>
      .st0 {
        fill: #205624;
      }
    </style>
  </defs>
  <path class="st0" d="M14,19h-4c-.3,0-.5.2-.5.5s.2.5.5.5h4c.3,0,.5-.2.5-.5s-.2-.5-.5-.5ZM14,21h-4c-.3,0-.5.2-.5.5s.2.5.5.5h4c.3,0,.5-.2.5-.5s-.2-.5-.5-.5ZM14.2,23h-4.5l1.2.8c.2.1.4.2.6.2h.9c.2,0,.5,0,.6-.2l1.2-.8ZM18,9.2c0,3.6-3.2,6-3.2,8.8h-5.6c0-2.8-3.2-5.2-3.2-8.8s3-5.8,6-5.8,6,2.1,6,5.8ZM22,8.5v1.4h-2.5c0-.2,0-.4,0-.7s0-.5,0-.7h2.5ZM11.4,2V0h1.4v2c-.2,0-.5,0-.7,0s-.4,0-.6,0ZM7.6,3.3l-1-1.9,1.2-.6,1,1.9c-.4.2-.8.4-1.2.7ZM18.2,5l1.9-1.4.8,1.1-2.1,1.5c-.2-.4-.4-.8-.7-1.2ZM15.2,2.6l1-1.9,1.2.6-1,1.9c-.4-.3-.8-.5-1.2-.7ZM5.1,6.2l-2.1-1.5.8-1.1,1.9,1.4c-.3.4-.5.8-.7,1.2ZM18.8,12.4l2.4,1-.5,1.3-2.4-1c.2-.4.4-.8.6-1.2ZM5.7,13.6l-2.4,1.1-.6-1.3,2.3-1.1c.2.4.4.8.6,1.2ZM4.5,9.9H2v-1.4h2.5c0,.2,0,.5,0,.7s0,.5,0,.7Z"/>
</svg>