<?xml version="1.0" encoding="UTF-8"?>
<svg id="Layer_1" xmlns="http://www.w3.org/2000/svg" version="1.1" viewBox="0 0 24 24">
  <!-- Generator: Adobe Illustrator 30.2.1, SVG Export Plug-In . SVG Version: 2.1.1 Build 1)  -->
  <defs>
    <style>
      .st0 {
        fill: #cb2e2e;
        fill-rule: evenodd;
      }
    </style>
  </defs>
  <path class="st0" d="M24,23H4c-2.2,0-4-1.8-4-4V3.3C.3,2.2,1.3,1,3,1s2.8,1.3,3,2.3v1.7h18v18ZM22,7H6v11s-.6-1-1.9-1-2.1.9-2.1,2,.9,2,2,2h18V7ZM20,19h-12v-10h12v10ZM12,10h-3v8h10v-8h-6v3h6v1h-2v3h-1v-3h-3v3h-1v-7Z"/>
</svg>