<?xml version="1.0" encoding="UTF-8"?>
<svg id="Layer_1" xmlns="http://www.w3.org/2000/svg" version="1.1" viewBox="0 0 24 24">
  <!-- Generator: Adobe Illustrator 30.2.1, SVG Export Plug-In . SVG Version: 2.1.1 Build 1)  -->
  <defs>
    <style>
      .st0 {
        fill: #205624;
        fill-rule: evenodd;
      }
    </style>
  </defs>
  <path class="st0" d="M7,16.5l1.5-.7c1.8-.8,2.9-.3,4.3.2,1.7.7,2.4.9,3.1,1.2,1.3.5.7,2.2-.6,1.8-.8-.2-2.8-.8-3.4-.9-.6-.2-.9.6-.3.8,1.1.4,2.7.8,3.5,1,.8.2,1.3-.1,1.9-.6.9-.7,3-2.9,3-2.9.8-.8,2-.1,2,.7s0,.5-.3.7c-2.3,2.8-3.1,3.6-4.6,5.2-.6.7-1.3,1-2.2,1s-.9,0-1.4-.2c-1.8-.6-4.2-1.3-6.5-1.6,0,0,0-5.7,0-5.7ZM6,23H2v-8h4v8ZM7,15.2v-1.7c0-1.6,0-2.4,1.9-2.9,2-.5,4.3-.9,3.4-2.6C9.5,2.9,11.5,0,14.4,0s4.9,2.8,2.2,8c-.9,1.7,1.4,2.1,3.4,2.6,1.8.4,1.9,1.3,1.9,2.9,0,.1,0,1.2,0,1.7-.5-.3-1.4-.6-2.2.1-.5.5-.6.5-1.8,1.6-1.8-.8-4.5-1.9-6.2-2.5-.9-.3-2-.3-3,0,0,0-1.7.7-1.7.7Z"/>
</svg>