<?xml version="1.0" encoding="UTF-8"?>
<svg id="Layer_1" xmlns="http://www.w3.org/2000/svg" version="1.1" viewBox="0 0 24 24">
  <!-- Generator: Adobe Illustrator 30.2.1, SVG Export Plug-In . SVG Version: 2.1.1 Build 1)  -->
  <defs>
    <style>
      .st0 {
        fill: #cb2e2e;
        fill-rule: evenodd;
      }
    </style>
  </defs>
  <path class="st0" d="M6.7,20.5c1.5,1,3.3,1.5,5.3,1.5s3.7-.5,5.3-1.5l1.2,1.6c-1.9,1.2-4.1,1.9-6.5,1.9s-4.6-.7-6.5-1.9c0,0,1.2-1.6,1.2-1.6ZM13.1,19.5l-.6.4c0,0-.2.1-.3.1h-.4c-.1,0-.2,0-.3-.1l-.6-.4s2.2,0,2.2,0ZM24,19h-6c0-1.1.9-2,2-2h2c.5,0,1,.2,1.4.6s.6.9.6,1.4ZM6,19H0c0-1.1.9-2,2-2h2c.5,0,1,.2,1.4.6s.6.9.6,1.4ZM13.1,18.5c.1,0,.2.1.2.2s-.1.2-.2.2h-2.3c-.1,0-.2-.1-.2-.2s.1-.2.2-.2h2.3ZM13.4,18c0-2,1.6-2.8,1.6-4.6s-1.5-2.9-3-2.9-3,1-3,2.9,1.6,2.6,1.6,4.6c0,0,2.8,0,2.8,0ZM21,12c1.2,0,2.2,1,2.2,2.2s-1,2.2-2.2,2.2-2.2-1-2.2-2.2,1-2.2,2.2-2.2ZM3,12c1.2,0,2.2,1,2.2,2.2s-1,2.2-2.2,2.2-2.2-1-2.2-2.2,1-2.2,2.2-2.2ZM15.9,14.4l1.3.6-.4.9-1.3-.6c.1-.3.3-.6.4-.9ZM8.1,14.4c0,.3.2.6.4.9l-1.3.6-.4-.9,1.4-.6ZM17.5,12.5v1h-1.5c0-.3,0-.7,0-1h1.6ZM8.1,12.5c0,.3-.1.7,0,1h0s-1.5,0-1.5,0v-1h1.6ZM15,10.8l1.2-.9.6.8-1.3.9c-.1-.3-.3-.6-.6-.8ZM9,10.8c-.2.3-.4.5-.6.8l-1.3-.9.6-.8s1.2.9,1.2.9ZM13.4,9.7l.7-1.3.9.4-.7,1.3c-.3-.2-.6-.3-.9-.4ZM10.6,9.7c-.3.1-.6.3-.9.4l-.7-1.3.9-.4.7,1.3ZM8,.7v2.1c-2.9,1.3-5.1,3.9-5.8,7.2H.2C.9,5.7,4,2.1,8,.7ZM16,.7c4,1.4,7.1,5,7.8,9.3h-2c-.7-3.2-2.9-5.9-5.8-7.2,0,0,0-2.1,0-2.1ZM12.5,9.5c-.3,0-.7,0-1,0v-1.5h1v1.5ZM15,7h-6c0-1.1.9-2,2-2h2c.5,0,1,.2,1.4.6s.6.9.6,1.4ZM12,0c1.2,0,2.2,1,2.2,2.2s-1,2.2-2.2,2.2-2.2-1-2.2-2.2,1-2.2,2.2-2.2Z"/>
</svg>