<?xml version="1.0" encoding="UTF-8"?>
<svg id="Layer_1" xmlns="http://www.w3.org/2000/svg" version="1.1" xmlns:xlink="http://www.w3.org/1999/xlink" viewBox="0 0 283.5 609.4">
  <!-- Generator: Adobe Illustrator 30.2.1, SVG Export Plug-In . SVG Version: 2.1.1 Build 1)  -->
  <defs>
    <style>
      .st0 {
        fill: #700e00;
      }

      .st1 {
        fill: #1d1d1b;
      }

      .st2 {
        fill: #fff;
      }

      .st3 {
        fill: none;
      }

      .st4 {
        clip-path: url(#clippath);
      }
    </style>
    <clipPath id="clippath">
      <rect class="st3" x="200.1" y="389" width="72.8" height="18.3"/>
    </clipPath>
  </defs>
  <g>
    <path class="st1" d="M30.4,446.3h4.3v35h-4.3v-35Z"/>
    <path class="st1" d="M54,455.4c0-3.7-1.3-6.2-5.4-6.2s-5.8,2-5.8,5.7c0,9.8,16.5,4,16.5,16.8s-5.9,10.4-10.9,10.4c-8.2,0-10.6-4.2-10.6-11.7h4.3c0,3.9.2,8.1,6.6,8.1s6.1-2.5,6.1-6.2c0-9.9-16.5-4.2-16.5-17s1.4-9.7,10.2-9.7,9.7,3.3,9.8,9.8h-4.3Z"/>
    <path class="st1" d="M84.5,463.8c0,8.8-1.6,18.2-11.3,18.2s-11.3-9.4-11.3-18.2,1.6-18.2,11.3-18.2,11.3,9.4,11.3,18.2ZM66.5,463.8c0,8.1.8,14.6,6.8,14.6s6.8-6.6,6.8-14.6-.8-14.7-6.8-14.7-6.8,6.6-6.8,14.7Z"/>
    <path class="st1" d="M103,473.6c0,2.8,1.6,5.1,4.6,5.1,5.8,0,6.1-8.7,6.1-10.4v-2.7h0c-.7,1.3-2.8,3.9-6.6,3.9-6,0-9.1-4.5-9.1-11s3.3-11.9,9.8-11.9c9.6,0,10.3,9.3,10.3,16.5s-.5,18.9-10.5,18.9-8.8-6.7-8.8-8.3h4.3ZM107.7,449.8c-4.3,0-5.5,4.4-5.5,8s.9,8,5.5,8,5.5-4.4,5.5-8-1.2-8-5.5-8Z"/>
    <path class="st1" d="M120.3,464.4c0-7.6.5-17.8,9.9-17.8s9.9,9.3,9.9,17.8-.5,17.5-9.9,17.5-9.9-9.3-9.9-17.5ZM130.2,478.7c5.3,0,5.6-7,5.6-14.3s-.3-14.6-5.6-14.6-5.6,7-5.6,14.6.3,14.3,5.6,14.3Z"/>
    <path class="st1" d="M142.6,464.4c0-7.6.5-17.8,9.9-17.8s9.9,9.3,9.9,17.8-.5,17.5-9.9,17.5-9.9-9.3-9.9-17.5ZM152.5,478.7c5.3,0,5.6-7,5.6-14.3s-.3-14.6-5.6-14.6-5.6,7-5.6,14.6.3,14.3,5.6,14.3Z"/>
    <path class="st1" d="M162.7,452.3c4.4-.2,8.4-.8,8.6-5.7h2.9v34.7h-4.1v-26.1h-7.4v-2.9Z"/>
    <path class="st1" d="M30.4,495.3h4.3v35h-4.3v-35Z"/>
    <path class="st1" d="M54,504.4c0-3.7-1.3-6.2-5.4-6.2s-5.8,2-5.8,5.7c0,9.8,16.5,4,16.5,16.8s-5.9,10.4-10.9,10.4c-8.2,0-10.6-4.2-10.6-11.7h4.3c0,3.9.2,8.1,6.6,8.1s6.1-2.5,6.1-6.2c0-9.9-16.5-4.2-16.5-17s1.4-9.7,10.2-9.7,9.7,3.3,9.8,9.8h-4.3Z"/>
    <path class="st1" d="M84.5,512.8c0,8.8-1.6,18.2-11.3,18.2s-11.3-9.4-11.3-18.2,1.6-18.2,11.3-18.2,11.3,9.4,11.3,18.2ZM66.5,512.8c0,8.1.8,14.6,6.8,14.6s6.8-6.6,6.8-14.6-.8-14.7-6.8-14.7-6.8,6.6-6.8,14.7Z"/>
    <path class="st1" d="M30.4,544.4h4.3v35h-4.3v-35Z"/>
    <path class="st1" d="M54,553.5c0-3.7-1.3-6.2-5.4-6.2s-5.8,2-5.8,5.7c0,9.8,16.5,4,16.5,16.8s-5.9,10.4-10.9,10.4c-8.2,0-10.6-4.2-10.6-11.7h4.3c0,3.9.2,8.1,6.6,8.1s6.1-2.5,6.1-6.2c0-9.9-16.5-4.2-16.5-17s1.4-9.7,10.2-9.7,9.7,3.3,9.8,9.8h-4.3Z"/>
    <path class="st1" d="M84.5,561.9c0,8.8-1.6,18.2-11.3,18.2s-11.3-9.4-11.3-18.2,1.6-18.2,11.3-18.2,11.3,9.4,11.3,18.2ZM66.5,561.9c0,8.1.8,14.6,6.8,14.6s6.8-6.6,6.8-14.6-.8-14.7-6.8-14.7-6.8,6.6-6.8,14.7Z"/>
    <path class="st1" d="M99.5,501.3c4.4-.2,8.4-.8,8.6-5.7h2.9v34.7h-4.1v-26.1h-7.4v-2.9Z"/>
    <path class="st1" d="M130,495.6h4.1v22.8h3.9v3.5h-3.9v8.4h-4.1v-8.4h-12.5v-3.9l12.5-22.4ZM121.2,518.4h8.8v-16h0l-8.7,16Z"/>
    <path class="st1" d="M140.2,513.4c0-7.6.5-17.8,9.9-17.8s9.9,9.3,9.9,17.8-.5,17.5-9.9,17.5-9.9-9.3-9.9-17.5ZM150.1,527.7c5.3,0,5.6-7,5.6-14.3s-.3-14.6-5.6-14.6-5.6,7-5.6,14.6.3,14.3,5.6,14.3Z"/>
    <path class="st1" d="M162.5,513.4c0-7.6.5-17.8,9.9-17.8s9.9,9.3,9.9,17.8-.5,17.5-9.9,17.5-9.9-9.3-9.9-17.5ZM172.4,527.7c5.3,0,5.6-7,5.6-14.3s-.3-14.6-5.6-14.6-5.6,7-5.6,14.6.3,14.3,5.6,14.3Z"/>
    <path class="st1" d="M182.5,501.3c4.4-.2,8.4-.8,8.6-5.7h2.9v34.7h-4.1v-26.1h-7.4v-2.9Z"/>
    <path class="st1" d="M111.9,544.6h4.1v22.8h3.9v3.5h-3.9v8.4h-4.1v-8.4h-12.5v-3.9l12.5-22.4ZM103.1,567.4h8.8v-16h0l-8.7,16Z"/>
    <path class="st1" d="M124.9,545.3h15.5v3.8h-12.2l-1.4,10h0c1.4-1.6,3.7-2.5,6.1-2.5,5.2,0,8.7,4.1,8.7,11.4s-2.8,11.9-10.1,11.9-9.5-6.8-9.5-9.6h4.3c0,1.8.7,6.4,5.3,6.4s5.7-5.5,5.7-9-1.4-7.8-5.8-7.8-4.9,2.5-4.9,3.4l-3.7-.2,1.9-17.8Z"/>
    <path class="st1" d="M144.3,562.4c0-7.6.5-17.8,9.9-17.8s9.9,9.3,9.9,17.8-.5,17.5-9.9,17.5-9.9-9.3-9.9-17.5ZM154.2,576.7c5.3,0,5.6-7,5.6-14.3s-.3-14.6-5.6-14.6-5.6,7-5.6,14.6.3,14.3,5.6,14.3Z"/>
    <path class="st1" d="M166.6,562.4c0-7.6.5-17.8,9.9-17.8s9.9,9.3,9.9,17.8-.5,17.5-9.9,17.5-9.9-9.3-9.9-17.5ZM176.5,576.7c5.3,0,5.6-7,5.6-14.3s-.3-14.6-5.6-14.6-5.6,7-5.6,14.6.3,14.3,5.6,14.3Z"/>
    <path class="st1" d="M186.7,550.3c4.4-.2,8.4-.8,8.6-5.7h2.9v34.7h-4.1v-26.1h-7.4v-2.9Z"/>
  </g>
  <polygon class="st0" points="283.5 0 0 0 0 416.7 283.5 416.7 283.5 0 283.5 0"/>
  <g>
    <g>
      <polygon class="st2" points="233.1 59.1 221.9 59.1 221.9 70.4 233.1 70.4 233.1 59.1 233.1 59.1"/>
      <path class="st2" d="M207.2,56c-.3.6-.7,1.2-1.2,1.8-.5.6-1,1.1-1.6,1.6-.6.5-1.4.9-2.3,1.2-.9.3-1.9.5-3.1.5s-2.6-.2-3.7-.7c-1.1-.5-2-1.1-2.8-2-.8-.9-1.4-1.9-1.8-3.1-.4-1.2-.6-2.5-.6-3.8s.2-2.6.6-3.8,1-2.2,1.8-3.1c.8-.9,1.7-1.5,2.8-2,1.1-.5,2.3-.7,3.7-.6,1.2,0,2.2.2,3.1.5.9.3,1.6.7,2.3,1.2.6.5,1.2,1.1,1.6,1.7.5.6.8,1.3,1.2,1.9h11.4c-.5-2.3-1.3-4.4-2.6-6.4-1.2-1.9-2.7-3.6-4.4-5-1.7-1.4-3.7-2.5-6-3.3-2.2-.8-4.6-1.2-7.1-1.2s-5.4.5-7.8,1.6c-2.4,1-4.5,2.5-6.3,4.3-1.8,1.8-3.2,3.9-4.2,6.4s-1.5,5.1-1.5,7.8.5,5.4,1.6,7.9c1,2.4,2.4,4.6,4.2,6.4,1.8,1.8,3.9,3.3,6.4,4.3,2.5,1,5.1,1.6,8,1.6s4.9-.4,7.1-1.2c2.2-.8,4.2-1.9,5.9-3.3,1.7-1.4,3.1-3.1,4.3-5,1.2-1.9,2-3.9,2.5-6.1h-11.5Z"/>
      <path class="st2" d="M156.4,70.4h11.3v-20.8c0-1.4.2-2.6.6-3.5.4-.9,1-1.6,1.8-2.1.8-.5,1.7-.8,2.8-1,1.1-.2,2.3-.3,3.6-.3v-11.4c-1.6,0-3,.2-4.1.6-1.1.4-2,.8-2.7,1.4-.7.5-1.3,1.1-1.7,1.7-.4.6-.7,1.1-1,1.6h-.1v-4h-10.6v37.8h0Z"/>
      <path class="st2" d="M139.3,32.6v4h-.1c-.4-.6-.8-1.2-1.4-1.8-.6-.6-1.3-1.2-2.2-1.7-.9-.5-2-1-3.2-1.3-1.2-.3-2.6-.5-4.2-.5-2.5,0-5,.5-7.2,1.4-2.3.9-4.3,2.3-6,4-1.7,1.7-3.1,3.9-4.2,6.4-1,2.5-1.6,5.3-1.6,8.4s.4,5.3,1.3,7.7c.9,2.4,2.1,4.6,3.7,6.4,1.6,1.9,3.6,3.3,6,4.4,2.4,1.1,5,1.6,8,1.6s2.2-.1,3.3-.3c1.1-.2,2.2-.5,3.2-1,1-.5,1.9-1,2.7-1.7.8-.7,1.4-1.5,1.9-2.4h.1v4.1h11.3v-37.8h-11.3ZM138.8,54.5c-.3,1.1-.9,2.2-1.6,3.2-.8,1-1.7,1.8-2.9,2.4-1.2.7-2.7,1-4.5,1s-3.2-.3-4.4-1c-1.2-.7-2.1-1.5-2.9-2.4-.7-1-1.3-2-1.6-3.1-.3-1.1-.5-2.1-.5-3s.2-2.2.5-3.3c.4-1.1.9-2.2,1.7-3.1.8-1,1.7-1.7,2.9-2.3,1.2-.6,2.6-.9,4.2-.9s3,.3,4.2.8c1.2.6,2.2,1.3,3,2.2.8.9,1.4,2,1.8,3.1.4,1.1.6,2.3.6,3.4s-.2,1.9-.5,3.1h0Z"/>
      <polygon class="st2" points="93.5 70.4 104.7 70.4 104.7 20 93.5 20 93.5 70.4 93.5 70.4"/>
      <polygon class="st2" points="30.3 20 30.3 70.4 41.6 70.4 41.6 31.3 56.3 31.3 56.3 20 30.3 20 30.3 20"/>
      <path class="st2" d="M87.6,43.9c-1-2.5-2.4-4.7-4.2-6.6-1.8-1.9-3.9-3.3-6.3-4.4-2.5-1.1-5.1-1.6-8-1.6s-5.5.6-7.9,1.7c-2.4,1.1-4.5,2.6-6.3,4.5-1.8,1.9-3.1,4-4.1,6.5-1,2.4-1.5,5-1.5,7.6s.5,5.4,1.6,7.9c1.1,2.4,2.5,4.5,4.4,6.4,1.8,1.8,4,3.2,6.4,4.3,2.4,1,5,1.5,7.7,1.5,4,0,7.6-1.1,10.8-3.4,1.6-1.1,3-2.4,4.4-4,1.3-1.6,2.4-3.5,3.3-5.6h-11.6c-.8,1-1.7,1.8-2.7,2.5-1,.7-2.4,1-4.2,1s-4.2-.6-5.8-1.9c-1.7-1.2-2.7-3-3-5.3h28.3c0-.5.2-.9.2-1.3,0-.4,0-1,0-1.7,0-2.9-.5-5.5-1.5-8.1h0ZM60.6,47.3c.1-.5.4-1.2.7-1.9.3-.7.9-1.5,1.5-2.1.7-.7,1.5-1.2,2.6-1.7,1-.5,2.3-.7,3.7-.7s2.7.2,3.7.7c1,.5,1.9,1,2.6,1.7.7.7,1.2,1.4,1.5,2.1.3.7.6,1.4.7,1.9h-17.1Z"/>
      <polygon class="st2" points="15.4 31.3 26.7 31.3 26.7 20 15.4 20 15.4 31.3 15.4 31.3"/>
    </g>
    <g>
      <path class="st2" d="M29.8,82.6h3.9v31.4h-3.9v-31.4Z"/>
      <path class="st2" d="M38.7,90.4h3.5v2.8h0c1-2.2,3.4-3.4,5.7-3.4,6.2,0,6.2,4.7,6.2,7.5v16.7h-3.7v-16.3c0-1.8-.1-4.8-3.5-4.8s-4.7,1.3-4.7,4.8v16.3h-3.7v-23.6Z"/>
      <path class="st2" d="M60.1,83.6h3.7v6.9h4.1v2.9h-4.1v15.1c0,1.9.5,2.6,2.4,2.6s1.2,0,1.6-.1v3c-.5,0-1.5.3-3,.3-3.8,0-4.8-1.6-4.8-4.7v-16.3h-3.4v-2.9h3.4v-6.9Z"/>
      <path class="st2" d="M73.5,102.7c0,3.6,0,9.1,4.5,9.1s4-3.7,4-5.5h3.7c0,2.5-1.5,8.4-7.9,8.4s-8.2-4-8.2-12.1,1.1-12.7,8.4-12.7,7.9,6.3,7.9,11.4v1.5h-12.4ZM82,99.8v-1.3c0-2.6-.8-5.8-4.1-5.8s-4.3,4.8-4.3,6.2v.9h8.4Z"/>
      <path class="st2" d="M105.5,112.5c0,7-3.3,9.6-8,9.6s-7.1,0-7.7-5.9h3.7c.2,2.2,1.8,3,3.8,3,4.8,0,4.6-3.7,4.6-5.3v-3.1h0c-.8,2-3,3.2-5.3,3.2-6.9,0-7.3-8.7-7.3-11.8,0-6.4,1.7-12.4,7.7-12.4s4.6,1.8,5.1,3.6h0v-3h3.5v22.1ZM93,102.2c0,3.8.6,8.6,4.3,8.6s4.8-3.8,4.8-8.6-.8-9.2-4.8-9.2-4.3,3.6-4.3,9.2Z"/>
      <path class="st2" d="M110.3,90.4h3.7v3.5h0c1.1-2.2,2.5-4.1,5.1-4.1s1.3,0,1.6.3v3.6c-.4,0-.8-.2-2-.2-1.8,0-4.8,1.7-4.8,5.6v14.9h-3.7v-23.6Z"/>
      <path class="st2" d="M122.8,97.6c0-5.4,2.3-7.7,7.9-7.7s7.2,4.3,7.2,6.8v13.2c0,1,0,1.9,1.1,1.9s.7,0,.9-.2v2.6c-.3,0-1.2.2-2.2.2-1.4,0-3.2,0-3.3-3h0c-1.2,2.1-3.5,3.4-5.7,3.4-4.4,0-6.4-2.6-6.4-6.9s1.4-5.6,4.4-6.5l5-1.5c2.7-.8,2.7-1.6,2.7-3.6s-1.3-3.5-3.8-3.5c-4,0-4,3.8-4,4.6v.2h-3.7ZM134.2,101.2c-1.4,1.5-4.6,1.8-6.3,2.8-1.2.7-1.8,1.7-1.8,3.7s.8,4,3.3,4,4.8-2.1,4.8-4.5v-6.1Z"/>
      <path class="st2" d="M144.4,83.6h3.7v6.9h4.1v2.9h-4.1v15.1c0,1.9.5,2.6,2.4,2.6s1.2,0,1.6-.1v3c-.5,0-1.5.3-3,.3-3.8,0-4.8-1.6-4.8-4.7v-16.3h-3.4v-2.9h3.4v-6.9Z"/>
      <path class="st2" d="M157.8,102.7c0,3.6,0,9.1,4.5,9.1s4-3.7,4-5.5h3.7c0,2.5-1.5,8.4-7.9,8.4s-8.2-4-8.2-12.1,1.1-12.7,8.4-12.7,7.9,6.3,7.9,11.4v1.5h-12.4ZM166.3,99.8v-1.3c0-2.6-.8-5.8-4.1-5.8s-4.3,4.8-4.3,6.2v.9h8.4Z"/>
      <path class="st2" d="M189.8,114h-3.5v-2.9h0c-.5,1.8-2.6,3.5-5.1,3.5-5.6,0-7.7-5-7.7-12.4s.8-12.4,7.4-12.4,4.4,1.3,5.2,3.3h0v-10.5h3.7v31.4ZM181.6,111.5c4.1,0,4.8-3.9,4.8-9.2s-.8-9.2-4.8-9.2-4.3,3.6-4.3,9.2.9,9.2,4.3,9.2Z"/>
      <path class="st2" d="M43.1,134.8c0-3.3-1.2-5.6-4.9-5.6s-5.2,1.8-5.2,5.1c0,8.8,14.8,3.6,14.8,15.1s-5.3,9.3-9.8,9.3c-7.3,0-9.5-3.8-9.5-10.5h3.9c0,3.5.2,7.3,5.9,7.3s5.5-2.2,5.5-5.5c0-8.9-14.8-3.7-14.8-15.3s1.2-8.7,9.2-8.7,8.7,3,8.8,8.8h-3.9Z"/>
      <path class="st2" d="M49.7,134.4h4l4.7,18.9h0l4.1-18.9h4l-6.8,25.2c-.9,3.3-1.8,6.2-6.3,6.2s-2.1,0-2.7-.1v-2.9c.5,0,1.2.1,2.2.1,1.7,0,2.5-1,2.9-2.3l.7-2.1-7-24.1Z"/>
      <path class="st2" d="M79.7,141.4c0-3-.8-4.6-3.5-4.6s-3.8.3-3.8,3.6,2.9,3.3,5.8,4.3c2.9,1,5.8,2,5.8,6.6s-3.2,7.4-7.6,7.4c-8,0-8.1-5.9-8.1-8.4h3.7c0,2.9.8,5.5,4.4,5.5s3.9-.6,3.9-3.9-2.9-3.8-5.8-4.8c-2.9-1-5.8-1.8-5.8-6.7s3.4-6.5,7.5-6.5c6.9,0,7.1,4.8,7.2,7.5h-3.7Z"/>
      <path class="st2" d="M88.6,127.6h3.7v6.9h4.1v2.9h-4.1v15.1c0,1.9.5,2.6,2.4,2.6s1.2,0,1.6-.1v3c-.5,0-1.5.3-3,.3-3.8,0-4.8-1.6-4.8-4.7v-16.3h-3.4v-2.9h3.4v-6.9Z"/>
      <path class="st2" d="M101.9,146.7c0,3.6,0,9.1,4.5,9.1s4-3.7,4-5.5h3.7c0,2.5-1.5,8.4-7.9,8.4s-8.2-4-8.2-12.1,1.1-12.7,8.4-12.7,7.9,6.3,7.9,11.4v1.5h-12.4ZM110.5,143.8v-1.3c0-2.6-.8-5.8-4.1-5.8s-4.3,4.8-4.3,6.2v.9h8.4Z"/>
      <path class="st2" d="M118.7,134.4h3.5v2.8h0c1-2.2,3.4-3.4,5.7-3.4s4.4,1.1,5.1,3.7c1.1-2.1,3.2-3.7,5.6-3.7,6.2,0,6.2,4.7,6.2,7.5v16.7h-3.7v-16.3c0-1.8-.1-4.8-3.2-4.8s-4.4,1.1-4.4,4.8v16.3h-3.7v-16.3c0-1.8-.1-4.8-3.2-4.8s-4.4,1.1-4.4,4.8v16.3h-3.7v-23.6Z"/>
      <path class="st2" d="M160.3,141.4c0-3-.8-4.6-3.5-4.6s-3.8.3-3.8,3.6,2.9,3.3,5.8,4.3c2.9,1,5.8,2,5.8,6.6s-3.2,7.4-7.6,7.4c-8,0-8.1-5.9-8.1-8.4h3.7c0,2.9.8,5.5,4.4,5.5s3.9-.6,3.9-3.9-2.9-3.8-5.8-4.8c-2.9-1-5.8-1.8-5.8-6.7s3.4-6.5,7.5-6.5c6.9,0,7.1,4.8,7.2,7.5h-3.7Z"/>
      <path class="st2" d="M47.9,191.3c-.3,5.9-2.5,11.4-9.1,11.4s-9.6-8.4-9.6-16.3,1.4-16.3,9.6-16.3,8.7,3.6,8.8,9.8h-3.8c0-3.6-1.2-6.6-5-6.6s-5.8,5.9-5.8,13.2.7,13.2,5.8,13.2,5.1-4.4,5.2-8.2h3.8Z"/>
      <path class="st2" d="M54.2,190.7c0,3.6,0,9.1,4.3,9.1s3.8-3.7,3.8-5.5h3.5c0,2.5-1.4,8.4-7.5,8.4s-7.8-4-7.8-12.1,1.1-12.7,8-12.7,7.5,6.3,7.5,11.4v1.5h-11.8ZM62.3,187.8v-1.3c0-2.6-.8-5.8-3.9-5.8s-4.1,4.8-4.1,6.2v.9h8Z"/>
      <path class="st2" d="M69,178.4h3.5v3.5h0c1-2.2,2.3-4.1,4.8-4.1s1.2,0,1.5.3v3.6c-.3,0-.8-.2-1.9-.2-1.8,0-4.6,1.7-4.6,5.6v14.9h-3.5v-23.6Z"/>
      <path class="st2" d="M84.1,171.6h3.5v6.9h3.9v2.9h-3.9v15.1c0,1.9.5,2.6,2.3,2.6s1.2,0,1.5-.1v3c-.5,0-1.4.3-2.8.3-3.6,0-4.5-1.6-4.5-4.7v-16.3h-3.3v-2.9h3.3v-6.9Z"/>
      <path class="st2" d="M94.1,170.6h3.5v4.2h-3.5v-4.2ZM94.1,178.4h3.5v23.6h-3.5v-23.6Z"/>
      <path class="st2" d="M103.4,181.3h-3.3v-2.9h3.3v-2.8c0-3.6,1.5-5.4,4.8-5.4h2.5v3.2h-1.6c-1.5,0-2.3.6-2.3,2.2v2.8h3.8v2.9h-3.8v20.7h-3.5v-20.7ZM113.4,170.6h3.5v4.2h-3.5v-4.2ZM113.4,178.4h3.5v23.6h-3.5v-23.6Z"/>
      <path class="st2" d="M132.4,185.6c0-2.3-.9-4.9-3.6-4.9s-4.4,1.1-4.4,9.8,0,9.2,4.3,9.2,3.7-3.3,3.7-5.9h3.5c0,3.7-1.8,8.8-7.4,8.8s-7.8-4-7.8-12.1,1.1-12.7,8-12.7,7.1,5.1,7.1,7.8h-3.5Z"/>
      <path class="st2" d="M139,185.6c0-5.4,2.2-7.7,7.5-7.7s6.8,4.3,6.8,6.8v13.2c0,1,0,1.9,1.1,1.9s.7,0,.8-.2v2.6c-.3,0-1.2.2-2,.2-1.3,0-3,0-3.2-3h0c-1.1,2.1-3.3,3.4-5.4,3.4-4.2,0-6.1-2.6-6.1-6.9s1.3-5.6,4.2-6.5l4.7-1.5c2.5-.8,2.5-1.6,2.5-3.6s-1.3-3.5-3.6-3.5c-3.8,0-3.8,3.8-3.8,4.6v.2h-3.5ZM149.8,189.2c-1.3,1.5-4.4,1.8-6,2.8-1.1.7-1.7,1.7-1.7,3.7s.8,4,3.2,4,4.5-2.1,4.5-4.5v-6.1Z"/>
      <path class="st2" d="M159.6,171.6h3.5v6.9h3.9v2.9h-3.9v15.1c0,1.9.5,2.6,2.3,2.6s1.2,0,1.5-.1v3c-.5,0-1.4.3-2.8.3-3.6,0-4.5-1.6-4.5-4.7v-16.3h-3.3v-2.9h3.3v-6.9Z"/>
      <path class="st2" d="M169.5,170.6h3.5v4.2h-3.5v-4.2ZM169.5,178.4h3.5v23.6h-3.5v-23.6Z"/>
      <path class="st2" d="M184.8,177.8c6.5,0,8.1,5.8,8.1,12.4s-1.6,12.4-8.1,12.4-8.1-5.8-8.1-12.4,1.6-12.4,8.1-12.4ZM189.2,190.2c0-5.1-.7-9.5-4.5-9.5s-4.3,4.4-4.3,9.5.7,9.5,4.3,9.5,4.5-4.4,4.5-9.5Z"/>
      <path class="st2" d="M196.4,178.4h3.3v2.8h0c.9-2.2,3.3-3.4,5.4-3.4,5.9,0,5.9,4.7,5.9,7.5v16.7h-3.5v-16.3c0-1.8-.1-4.8-3.3-4.8s-4.4,1.3-4.4,4.8v16.3h-3.5v-23.6Z"/>
    </g>
  </g>
  <path class="st2" d="M46.2,264.8L.1,310.9l106.1,106.1,177.2-177.2v-92.1l-177.2,177.2-60.1-60.1h0Z"/>
  <g class="st4">
    <path class="st2" d="M272.9,389h-5.5l-3.2,14.2h0l-3.3-14.2h-5.5v18h3.5v-15.1h0l3.3,15.1h3.7l3.4-15.1h0v15.1h3.5v-18ZM247.9,392.2h5.5v-3.2h-14.7v3.2h5.5v14.8h3.8v-14.8ZM231.8,394.5h-2.6v2.7h-1.3v1.9h1.3v6c0,1.3.4,2.1,2.7,2.1h.3c.4,0,.8,0,1.2,0v-2c-.2,0-.4,0-.5,0-1.1,0-1.1-.2-1.1-.8v-5.4h1.6v-1.9h-1.6v-2.7ZM221.3,407.1h2.6v-5.1c0-1.1.4-2.4,2.4-2.4s.5,0,.7,0v-2.6c-.2,0-.3,0-.5,0-1.6,0-2.2,1-2.7,2h0v-1.7h-2.5v9.9ZM212.9,401.1c.1-1.3.8-2.1,2-2.1s1.9.5,2,2.1h-4ZM216.8,404.2c-.2.7-.9,1.1-1.7,1.1-2.1,0-2.2-1.7-2.3-2.4h6.8v-.5c0-4.5-2.7-5.4-4.6-5.4-4.3,0-4.7,3.8-4.7,5,0,4.1,2.1,5.4,4.9,5.4s3.7-.8,4.3-3.2h-2.7ZM206.5,403.5c0,.5-.4,1.7-1.8,1.7-2,0-2-2.1-2-3.2s.4-2.9,2.1-2.9h.1c1.1,0,1.5,1,1.6,1.6h2.6c-.2-3.1-2.8-3.8-4.4-3.8-3.3,0-4.7,2.3-4.7,5.5s.9,4.9,4.6,4.9,4.4-2.8,4.5-3.9h-2.6Z"/>
  </g>
</svg>